<<<<<<< HEAD
<mxfile host="app.diagrams.net" modified="2022-06-10T19:15:57.888Z" agent="5.0 (Macintosh; Intel Mac OS X 10_15_7) AppleWebKit/537.36 (KHTML, like Gecko) Chrome/102.0.0.0 Safari/537.36" etag="YFCIXFkTk2kTwANKXfxF" version="19.0.2" type="device"><diagram id="C5RBs43oDa-KdzZeNtuy" name="Page-1">7Vttc6I6FP41ztx7Z9ohgtR+rNp2d2+70127L/djlBRyG4gLsdb++j2BRIFQRYu123HGackhBJLnyTnnOWjL7oePlzGeBNfcI6zVtrzHlj1otdvd9gn8lYZ5Zug4KDP4MfUyU84wpE9EGS1lnVKPJIWOgnMm6KRoHPMoImNRsOE45rNitzvOinedYJ8YhuEYM9P6g3oiKE1L2j8Q6gf6zsg9zc6EWHdWM0kC7PFZzmSft+x+zLnIjsLHPmFy7fS6/Pg4/8Gu7t3LT1+SX/hb79/bz9+PssEuNrlkMYWYRGLroZ/u7y4+fHf+/zm5ufgysy7PRp+O1CXWA2ZTtV7fAS6uJizmehWTGQ0ZjqDVu+ORGKozCNqYUT+C4zE8HInB8EBiQQGAM3VC8AlYxwFl3hWe86mcQiLw+F63egGP6RMMi5kaE07HQnGp7RZ6DOWVYLbAGpME+tzodUEL0xVOhOoz5ozhSUJHiwcOcezTqMeF4KEeiE8jj3iqtQA6bYiY3y+oI6+viYZCTa4GecxxUaFzSXhIRDyHLursgmhqpyHdni15i1xlC/KcPVVGrPaKvxh7cbuvsLdw5MMiLO9nl+7n1LwfIFK4HWYAfIQF6cllTPIshIPcVJemlJsb8BQZPD2C5sdByz6D/4xHPvybRgkwDmCEwQCaMocBBpHjKyN34lm2JhM8ppF/lfYZOEvLV7UM0sTh2juWMiWgnkeilEkCC5yRTdJnwuFR0nXq9OADq9m3jjutDjxQH9po2YaP7B6LPo+AdJim7CLA5BmRbK7g3cotvZ538yKcm8KeZ1kB703BbVeCG+GQZPDCalAJ8DvDc4XTCUTI1OGuUO+094y6XYm6N42xoDzKkL+lwIED7k3iftJ9PdzPrvE3ity7MLgWpzH5Ovr183NFyiFx90kUq+0+DnB8AL1R0JHl7Bn16gAOeZ6YJsrLQ44nZIbPOD4E79rI2lsmbY35ccdA1gCP0VQ5KKKjyqx6DbIhYCSH01DeSqQHR8iA2zbhtiugZXhE2A1PaBZsBnHWtwT53lDt1MzJujsCtVMBai+V7sM0Gfvr73edmu0MV/cV/XDlI7sGsNf8gZpJ1kHw717wo5Lgd6yavtzdSu+jkt63u29X758egso65+PWptuGOn9XMQWZOeAhqDSAq73vmILMAo4BHom8M1nNh9aIcenQe2BSHh9ZWfOCMq2E1rjkov8mnk90hCJsxGfnS0MvNcAJTZT0VjDtn/LiYxt1teE/Ofax5djaMHjU46eteb51Q2IKqyfj3zPKbVWMSPg0HpP1JICo6JNVZFF5mlyAlVSp4kZMGBb0ofieZEVIueFpVXVRPraK4aRt2cUhskmqq/IvJjYdKFsFY6DGastmJep8QhPuHbKifWRFtr1lVoS0H9osLbKdGmnRydtIi5AptmUZRVDB3netvGbsXGzlN/nyo7IwdlKJaAJz10VwXRg7vN7aDuK9v+lAVdWUg5p5Iax1X2Q0IGcqN263AtS8mjn4421Q7e77ZTQyK2QGem9VzLhuSct034KW0SR402IGlZLAky3FjO2WBmqXanXNiZlKr2RK8T7DSUIgHbUGFPsxDp9zRkbs6XPGJScinikeIHTJtFb0LGLSLKCCDMFvyXvOYjwxeL8Z6zbQE45TQKTqW05OhYexVxRZXxQ4TLk5hA34x4vNzHSNHwsdN5Wgu2KBa9VQlVUqb6WqfBEPzBo3MjiQizR8kgb13C7NxZy2BlD39igOeeTdBjQqYYscbVARCpWCDoT9gPs8wiwfedakKiMFYjmY6eCE8pFJZhmr45JJg1VbaW1k0bp5bWhRbNH80k78ZTFmUVg47mwXVFA5qBgj7TiqVJcdVJVMfX9D18wyUfBMjNk0sLyDxHhlDHhRnaJOUaoxb1Vfw5oJ7uYA/ylathlwqyoUVeDuSso29GbusLm3xN/dsuLcGAGqNK/EH8Mc5M9p0q/pLUhQ54t6By5syYWqAsirckEr4RwZ/nkOZUOHlIXKOr++2otXkuhVMW1GfDil/M2p+GVPtxmMobn8RVqW/i1/1mef/wY=</diagram></mxfile>
=======
<mxfile host="app.diagrams.net" modified="2022-06-10T19:51:13.186Z" agent="5.0 (Macintosh; Intel Mac OS X 10_15_7) AppleWebKit/605.1.15 (KHTML, like Gecko) Version/15.5 Safari/605.1.15" etag="lSFPWY2fziAXCWVamPiO" version="18.2.0" type="github">
  <diagram id="C5RBs43oDa-KdzZeNtuy" name="Page-1">
    <mxGraphModel dx="946" dy="543" grid="1" gridSize="10" guides="1" tooltips="1" connect="1" arrows="1" fold="1" page="1" pageScale="1" pageWidth="827" pageHeight="1169" math="0" shadow="0">
      <root>
        <mxCell id="WIyWlLk6GJQsqaUBKTNV-0" />
        <mxCell id="WIyWlLk6GJQsqaUBKTNV-1" parent="WIyWlLk6GJQsqaUBKTNV-0" />
        <mxCell id="zkfFHV4jXpPFQw0GAbJ--0" value="Video" style="swimlane;fontStyle=1;align=center;verticalAlign=top;childLayout=stackLayout;horizontal=1;startSize=26;horizontalStack=0;resizeParent=1;resizeLast=0;collapsible=1;marginBottom=0;rounded=0;shadow=0;strokeWidth=1;" parent="WIyWlLk6GJQsqaUBKTNV-1" vertex="1">
          <mxGeometry x="220" y="120" width="160" height="216" as="geometry">
            <mxRectangle x="230" y="140" width="160" height="26" as="alternateBounds" />
          </mxGeometry>
        </mxCell>
        <mxCell id="zkfFHV4jXpPFQw0GAbJ--1" value="- ID: int" style="text;align=left;verticalAlign=top;spacingLeft=4;spacingRight=4;overflow=hidden;rotatable=0;points=[[0,0.5],[1,0.5]];portConstraint=eastwest;" parent="zkfFHV4jXpPFQw0GAbJ--0" vertex="1">
          <mxGeometry y="26" width="160" height="26" as="geometry" />
        </mxCell>
        <mxCell id="zkfFHV4jXpPFQw0GAbJ--2" value="- name: string" style="text;align=left;verticalAlign=top;spacingLeft=4;spacingRight=4;overflow=hidden;rotatable=0;points=[[0,0.5],[1,0.5]];portConstraint=eastwest;rounded=0;shadow=0;html=0;" parent="zkfFHV4jXpPFQw0GAbJ--0" vertex="1">
          <mxGeometry y="52" width="160" height="26" as="geometry" />
        </mxCell>
        <mxCell id="zkfFHV4jXpPFQw0GAbJ--3" value="- duration: int" style="text;align=left;verticalAlign=top;spacingLeft=4;spacingRight=4;overflow=hidden;rotatable=0;points=[[0,0.5],[1,0.5]];portConstraint=eastwest;rounded=0;shadow=0;html=0;" parent="zkfFHV4jXpPFQw0GAbJ--0" vertex="1">
          <mxGeometry y="78" width="160" height="26" as="geometry" />
        </mxCell>
        <mxCell id="AMaUi16fmhMt9reRbqXN-0" value="- genre: string" style="text;align=left;verticalAlign=top;spacingLeft=4;spacingRight=4;overflow=hidden;rotatable=0;points=[[0,0.5],[1,0.5]];portConstraint=eastwest;rounded=0;shadow=0;html=0;" parent="zkfFHV4jXpPFQw0GAbJ--0" vertex="1">
          <mxGeometry y="104" width="160" height="26" as="geometry" />
        </mxCell>
        <mxCell id="AMaUi16fmhMt9reRbqXN-1" value="- rating: float" style="text;align=left;verticalAlign=top;spacingLeft=4;spacingRight=4;overflow=hidden;rotatable=0;points=[[0,0.5],[1,0.5]];portConstraint=eastwest;" parent="zkfFHV4jXpPFQw0GAbJ--0" vertex="1">
          <mxGeometry y="130" width="160" height="26" as="geometry" />
        </mxCell>
        <mxCell id="BC7kbI5_zOE68ADHCNBL-0" value="- raters: int" style="text;align=left;verticalAlign=top;spacingLeft=4;spacingRight=4;overflow=hidden;rotatable=0;points=[[0,0.5],[1,0.5]];portConstraint=eastwest;" vertex="1" parent="zkfFHV4jXpPFQw0GAbJ--0">
          <mxGeometry y="156" width="160" height="26" as="geometry" />
        </mxCell>
        <mxCell id="zkfFHV4jXpPFQw0GAbJ--4" value="" style="line;html=1;strokeWidth=1;align=left;verticalAlign=middle;spacingTop=-1;spacingLeft=3;spacingRight=3;rotatable=0;labelPosition=right;points=[];portConstraint=eastwest;" parent="zkfFHV4jXpPFQw0GAbJ--0" vertex="1">
          <mxGeometry y="182" width="160" height="8" as="geometry" />
        </mxCell>
        <mxCell id="zkfFHV4jXpPFQw0GAbJ--5" value="+ toString(): string" style="text;align=left;verticalAlign=top;spacingLeft=4;spacingRight=4;overflow=hidden;rotatable=0;points=[[0,0.5],[1,0.5]];portConstraint=eastwest;" parent="zkfFHV4jXpPFQw0GAbJ--0" vertex="1">
          <mxGeometry y="190" width="160" height="26" as="geometry" />
        </mxCell>
        <mxCell id="zkfFHV4jXpPFQw0GAbJ--6" value="Movie" style="swimlane;fontStyle=1;align=center;verticalAlign=top;childLayout=stackLayout;horizontal=1;startSize=26;horizontalStack=0;resizeParent=1;resizeLast=0;collapsible=1;marginBottom=0;rounded=0;shadow=0;strokeWidth=1;" parent="WIyWlLk6GJQsqaUBKTNV-1" vertex="1">
          <mxGeometry x="120" y="400" width="160" height="60" as="geometry">
            <mxRectangle x="130" y="380" width="160" height="26" as="alternateBounds" />
          </mxGeometry>
        </mxCell>
        <mxCell id="zkfFHV4jXpPFQw0GAbJ--9" value="" style="line;html=1;strokeWidth=1;align=left;verticalAlign=middle;spacingTop=-1;spacingLeft=3;spacingRight=3;rotatable=0;labelPosition=right;points=[];portConstraint=eastwest;" parent="zkfFHV4jXpPFQw0GAbJ--6" vertex="1">
          <mxGeometry y="26" width="160" height="8" as="geometry" />
        </mxCell>
        <mxCell id="zkfFHV4jXpPFQw0GAbJ--11" value="+ toString(): string" style="text;align=left;verticalAlign=top;spacingLeft=4;spacingRight=4;overflow=hidden;rotatable=0;points=[[0,0.5],[1,0.5]];portConstraint=eastwest;" parent="zkfFHV4jXpPFQw0GAbJ--6" vertex="1">
          <mxGeometry y="34" width="160" height="26" as="geometry" />
        </mxCell>
        <mxCell id="zkfFHV4jXpPFQw0GAbJ--12" value="" style="endArrow=block;endSize=10;endFill=0;shadow=0;strokeWidth=1;rounded=0;edgeStyle=elbowEdgeStyle;elbow=vertical;" parent="WIyWlLk6GJQsqaUBKTNV-1" source="zkfFHV4jXpPFQw0GAbJ--6" target="zkfFHV4jXpPFQw0GAbJ--0" edge="1">
          <mxGeometry width="160" relative="1" as="geometry">
            <mxPoint x="200" y="203" as="sourcePoint" />
            <mxPoint x="200" y="203" as="targetPoint" />
          </mxGeometry>
        </mxCell>
        <mxCell id="zkfFHV4jXpPFQw0GAbJ--13" value="Episode" style="swimlane;fontStyle=1;align=center;verticalAlign=top;childLayout=stackLayout;horizontal=1;startSize=26;horizontalStack=0;resizeParent=1;resizeLast=0;collapsible=1;marginBottom=0;rounded=0;shadow=0;strokeWidth=1;" parent="WIyWlLk6GJQsqaUBKTNV-1" vertex="1">
          <mxGeometry x="330" y="400" width="160" height="112" as="geometry">
            <mxRectangle x="340" y="380" width="170" height="26" as="alternateBounds" />
          </mxGeometry>
        </mxCell>
        <mxCell id="zkfFHV4jXpPFQw0GAbJ--14" value="- title: string" style="text;align=left;verticalAlign=top;spacingLeft=4;spacingRight=4;overflow=hidden;rotatable=0;points=[[0,0.5],[1,0.5]];portConstraint=eastwest;" parent="zkfFHV4jXpPFQw0GAbJ--13" vertex="1">
          <mxGeometry y="26" width="160" height="26" as="geometry" />
        </mxCell>
        <mxCell id="AMaUi16fmhMt9reRbqXN-7" value="- season: int" style="text;align=left;verticalAlign=top;spacingLeft=4;spacingRight=4;overflow=hidden;rotatable=0;points=[[0,0.5],[1,0.5]];portConstraint=eastwest;" parent="zkfFHV4jXpPFQw0GAbJ--13" vertex="1">
          <mxGeometry y="52" width="160" height="26" as="geometry" />
        </mxCell>
        <mxCell id="zkfFHV4jXpPFQw0GAbJ--15" value="" style="line;html=1;strokeWidth=1;align=left;verticalAlign=middle;spacingTop=-1;spacingLeft=3;spacingRight=3;rotatable=0;labelPosition=right;points=[];portConstraint=eastwest;" parent="zkfFHV4jXpPFQw0GAbJ--13" vertex="1">
          <mxGeometry y="78" width="160" height="8" as="geometry" />
        </mxCell>
        <mxCell id="AMaUi16fmhMt9reRbqXN-8" value="+ toString: string" style="text;align=left;verticalAlign=top;spacingLeft=4;spacingRight=4;overflow=hidden;rotatable=0;points=[[0,0.5],[1,0.5]];portConstraint=eastwest;" parent="zkfFHV4jXpPFQw0GAbJ--13" vertex="1">
          <mxGeometry y="86" width="160" height="26" as="geometry" />
        </mxCell>
        <mxCell id="zkfFHV4jXpPFQw0GAbJ--16" value="" style="endArrow=block;endSize=10;endFill=0;shadow=0;strokeWidth=1;rounded=0;edgeStyle=elbowEdgeStyle;elbow=vertical;" parent="WIyWlLk6GJQsqaUBKTNV-1" source="zkfFHV4jXpPFQw0GAbJ--13" target="zkfFHV4jXpPFQw0GAbJ--0" edge="1">
          <mxGeometry width="160" relative="1" as="geometry">
            <mxPoint x="210" y="373" as="sourcePoint" />
            <mxPoint x="310" y="271" as="targetPoint" />
          </mxGeometry>
        </mxCell>
        <mxCell id="AMaUi16fmhMt9reRbqXN-2" value="Classes Diagram" style="text;html=1;strokeColor=none;fillColor=none;align=center;verticalAlign=middle;whiteSpace=wrap;rounded=0;" parent="WIyWlLk6GJQsqaUBKTNV-1" vertex="1">
          <mxGeometry x="344" y="40" width="140" height="30" as="geometry" />
        </mxCell>
        <mxCell id="AMaUi16fmhMt9reRbqXN-3" value="Serie" style="swimlane;fontStyle=1;align=center;verticalAlign=top;childLayout=stackLayout;horizontal=1;startSize=26;horizontalStack=0;resizeParent=1;resizeParentMax=0;resizeLast=0;collapsible=1;marginBottom=0;" parent="WIyWlLk6GJQsqaUBKTNV-1" vertex="1">
          <mxGeometry x="600" y="400" width="170" height="112" as="geometry" />
        </mxCell>
        <mxCell id="AMaUi16fmhMt9reRbqXN-9" value="1" style="endArrow=open;html=1;endSize=12;startArrow=diamondThin;startSize=14;startFill=1;edgeStyle=orthogonalEdgeStyle;align=left;verticalAlign=bottom;rounded=0;entryX=1;entryY=0.5;entryDx=0;entryDy=0;" parent="AMaUi16fmhMt9reRbqXN-3" target="zkfFHV4jXpPFQw0GAbJ--14" edge="1">
          <mxGeometry x="-1" y="3" relative="1" as="geometry">
            <mxPoint y="38.5" as="sourcePoint" />
            <mxPoint x="160" y="38.5" as="targetPoint" />
          </mxGeometry>
        </mxCell>
        <mxCell id="AMaUi16fmhMt9reRbqXN-4" value="- Episodes: Episode[]" style="text;strokeColor=none;fillColor=none;align=left;verticalAlign=top;spacingLeft=4;spacingRight=4;overflow=hidden;rotatable=0;points=[[0,0.5],[1,0.5]];portConstraint=eastwest;" parent="AMaUi16fmhMt9reRbqXN-3" vertex="1">
          <mxGeometry y="26" width="170" height="26" as="geometry" />
        </mxCell>
        <mxCell id="AMaUi16fmhMt9reRbqXN-5" value="" style="line;strokeWidth=1;fillColor=none;align=left;verticalAlign=middle;spacingTop=-1;spacingLeft=3;spacingRight=3;rotatable=0;labelPosition=right;points=[];portConstraint=eastwest;" parent="AMaUi16fmhMt9reRbqXN-3" vertex="1">
          <mxGeometry y="52" width="170" height="8" as="geometry" />
        </mxCell>
        <mxCell id="AMaUi16fmhMt9reRbqXN-11" value="+ toString(): string" style="text;strokeColor=none;fillColor=none;align=left;verticalAlign=top;spacingLeft=4;spacingRight=4;overflow=hidden;rotatable=0;points=[[0,0.5],[1,0.5]];portConstraint=eastwest;" parent="AMaUi16fmhMt9reRbqXN-3" vertex="1">
          <mxGeometry y="60" width="170" height="26" as="geometry" />
        </mxCell>
        <mxCell id="AMaUi16fmhMt9reRbqXN-6" value="+ averageRating(): float" style="text;strokeColor=none;fillColor=none;align=left;verticalAlign=top;spacingLeft=4;spacingRight=4;overflow=hidden;rotatable=0;points=[[0,0.5],[1,0.5]];portConstraint=eastwest;" parent="AMaUi16fmhMt9reRbqXN-3" vertex="1">
          <mxGeometry y="86" width="170" height="26" as="geometry" />
        </mxCell>
        <mxCell id="AMaUi16fmhMt9reRbqXN-10" value="*" style="text;align=center;fontStyle=1;verticalAlign=middle;spacingLeft=3;spacingRight=3;strokeColor=none;rotatable=0;points=[[0,0.5],[1,0.5]];portConstraint=eastwest;" parent="WIyWlLk6GJQsqaUBKTNV-1" vertex="1">
          <mxGeometry x="460" y="420" width="80" height="26" as="geometry" />
        </mxCell>
        <mxCell id="BC7kbI5_zOE68ADHCNBL-5" value="Catalogue" style="swimlane;fontStyle=1;align=center;verticalAlign=top;childLayout=stackLayout;horizontal=1;startSize=26;horizontalStack=0;resizeParent=1;resizeParentMax=0;resizeLast=0;collapsible=1;marginBottom=0;" vertex="1" parent="WIyWlLk6GJQsqaUBKTNV-1">
          <mxGeometry x="520" y="180" width="170" height="86" as="geometry" />
        </mxCell>
        <mxCell id="BC7kbI5_zOE68ADHCNBL-6" value="- videos: Video[]" style="text;strokeColor=none;fillColor=none;align=left;verticalAlign=top;spacingLeft=4;spacingRight=4;overflow=hidden;rotatable=0;points=[[0,0.5],[1,0.5]];portConstraint=eastwest;" vertex="1" parent="BC7kbI5_zOE68ADHCNBL-5">
          <mxGeometry y="26" width="170" height="26" as="geometry" />
        </mxCell>
        <mxCell id="BC7kbI5_zOE68ADHCNBL-7" value="" style="line;strokeWidth=1;fillColor=none;align=left;verticalAlign=middle;spacingTop=-1;spacingLeft=3;spacingRight=3;rotatable=0;labelPosition=right;points=[];portConstraint=eastwest;" vertex="1" parent="BC7kbI5_zOE68ADHCNBL-5">
          <mxGeometry y="52" width="170" height="8" as="geometry" />
        </mxCell>
        <mxCell id="BC7kbI5_zOE68ADHCNBL-8" value="+ toString(int version, int type): string" style="text;strokeColor=none;fillColor=none;align=left;verticalAlign=top;spacingLeft=4;spacingRight=4;overflow=hidden;rotatable=0;points=[[0,0.5],[1,0.5]];portConstraint=eastwest;" vertex="1" parent="BC7kbI5_zOE68ADHCNBL-5">
          <mxGeometry y="60" width="170" height="26" as="geometry" />
        </mxCell>
        <mxCell id="BC7kbI5_zOE68ADHCNBL-12" value="1" style="endArrow=open;html=1;endSize=12;startArrow=diamondThin;startSize=14;startFill=1;edgeStyle=orthogonalEdgeStyle;align=left;verticalAlign=bottom;rounded=0;entryX=1.006;entryY=0.846;entryDx=0;entryDy=0;entryPerimeter=0;" edge="1" parent="WIyWlLk6GJQsqaUBKTNV-1" target="zkfFHV4jXpPFQw0GAbJ--3">
          <mxGeometry x="-1" y="3" relative="1" as="geometry">
            <mxPoint x="534" y="219.5" as="sourcePoint" />
            <mxPoint x="400" y="220" as="targetPoint" />
            <Array as="points" />
          </mxGeometry>
        </mxCell>
      </root>
    </mxGraphModel>
  </diagram>
</mxfile>
>>>>>>> 4f9deba5fbdc2b2ddb58740d525b1f1e1e246dbf
